<svg t="1681390214533" class="icon" viewBox="0 0 1024 1024" version="1.1" xmlns="http://www.w3.org/2000/svg" p-id="1973" width="200" height="200"><path d="M816.872727 93.090909h-83.781818c-4.654545-39.563636-39.563636-69.818182-81.454545-69.818182H372.363636c-41.890909 0-74.472727 30.254545-81.454545 69.818182H207.127273c-69.818182 0-125.672727 55.854545-125.672728 125.672727v656.290909c0 69.818182 55.854545 125.672727 125.672728 125.672728h609.745454c69.818182 0 125.672727-55.854545 125.672728-125.672728V218.763636c0-69.818182-55.854545-125.672727-125.672728-125.672727zM465.454545 209.454545h93.09091c18.618182 0 34.909091 16.290909 34.90909 34.909091S577.163636 279.272727 558.545455 279.272727h-93.09091c-18.618182 0-34.909091-16.290909-34.90909-34.909091S446.836364 209.454545 465.454545 209.454545z m279.272728 546.909091H279.272727c-18.618182 0-34.909091-16.290909-34.909091-34.909091s16.290909-34.909091 34.909091-34.90909h465.454546c18.618182 0 34.909091 16.290909 34.909091 34.90909s-16.290909 34.909091-34.909091 34.909091z m0-186.181818H279.272727c-18.618182 0-34.909091-16.290909-34.909091-34.909091s16.290909-34.909091 34.909091-34.909091h465.454546c18.618182 0 34.909091 16.290909 34.909091 34.909091s-16.290909 34.909091-34.909091 34.909091z" fill="#1296db" p-id="1974"></path></svg>