<svg t="1678176366048" class="icon" viewBox="0 0 1024 1024" version="1.1" xmlns="http://www.w3.org/2000/svg" p-id="21341" width="200" height="200"><path d="M862.802581 105.372903h-90.178065V62.76129a24.708129 24.708129 0 0 0-3.732645-12.155871 45.650581 45.650581 0 0 0-9.083871-10.900645c-7.267097-6.44129-17.308903-11.627355-27.813161-11.627355-10.041806 0-18.828387 3.36929-25.071484 9.612387a34.683871 34.683871 0 0 0-9.612387 25.071484v36.665807H356.418065V62.76129c0-7.399226-3.567484-15.921548-9.414194-22.594064A33.626839 33.626839 0 0 0 321.734194 28.077419c-10.669419 0-19.389935 5.351226-25.269678 12.089807-5.84671 6.672516-9.414194 15.194839-9.414193 22.594064v36.665807H160.635871C105.141677 105.670194 61.109677 148.975484 61.109677 199.514839v689.713548a98.865548 98.865548 0 0 0 100.087742 100.087742h701.605162a98.865548 98.865548 0 0 0 100.087742-100.087742V199.514839c0-50.539355-44.032-94.141935-100.087742-94.141936z m24.410838 788.810323a23.221677 23.221677 0 0 1-6.375225 13.080774 24.774194 24.774194 0 0 1-18.035613 6.738581H161.197419a24.774194 24.774194 0 0 1-18.035613-6.738581 24.774194 24.774194 0 0 1-6.73858-18.035613V199.514839c0-7.795613 2.576516-13.873548 6.73858-18.035613a24.807226 24.807226 0 0 1 18.035613-6.738581h119.907097v1.783742l0.264258 0.759742c3.105032 9.348129 7.828645 18.927484 14.369032 26.260645 6.573419 7.399226 15.260903 12.816516 25.996388 12.816516 10.041806 0 18.828387-3.36929 25.071483-9.612387 6.243097-6.276129 9.612387-15.029677 9.612388-25.071484v-6.936774h340.892903v0.990968c0 10.041806 3.36929 18.828387 9.612387 25.071484 6.276129 6.243097 15.029677 9.612387 25.071484 9.612387s18.828387-3.36929 25.071484-9.612387c6.243097-6.276129 9.612387-15.029677 9.612387-25.071484v-0.990968h90.178064a24.774194 24.774194 0 0 1 18.035613 6.738581 24.774194 24.774194 0 0 1 6.738581 18.035613V894.183226H887.213419z" fill="#707070" p-id="21342"></path><path d="M767.669677 319.421935H256.330323c-10.074839 0-18.828387 3.36929-25.104517 9.64542a34.683871 34.683871 0 0 0-9.579354 25.038451c0 9.975742 3.303226 19.984516 9.182967 27.581936a32.04129 32.04129 0 0 0 25.467871 13.047742h511.339355c10.074839 0 18.828387-3.36929 25.071484-9.612387 6.276129-6.276129 9.612387-15.029677 9.612387-25.071484 0-9.94271-3.303226-19.951484-9.216-27.548903a32.04129 32.04129 0 0 0-25.434839-13.080775z m0 190.265807H256.330323c-10.074839 0-18.828387 3.36929-25.104517 9.645419a34.683871 34.683871 0 0 0-9.579354 25.038452c0 10.041806 3.336258 18.828387 9.579354 25.071484 6.276129 6.276129 15.029677 9.612387 25.104517 9.612387h511.339354c10.041806 0 18.795355-3.36929 25.038452-9.612387 6.276129-6.276129 9.612387-15.029677 9.612387-25.071484s-3.36929-18.795355-9.612387-25.038452a34.683871 34.683871 0 0 0-25.071484-9.645419z m-255.669677 190.265806H256.330323c-10.074839 0-18.828387 3.36929-25.104517 9.64542a34.683871 34.683871 0 0 0-9.579354 25.038451c0 10.041806 3.336258 18.828387 9.579354 25.071484 6.276129 6.276129 15.029677 9.612387 25.104517 9.612387h255.669677c10.008774 0 18.795355-3.36929 25.038452-9.612387 6.276129-6.276129 9.612387-15.029677 9.612387-25.071484s-3.36929-18.795355-9.612387-25.038451a34.683871 34.683871 0 0 0-25.071484-9.64542z" fill="#707070" p-id="21343"></path></svg>