<svg t="1678176184242" class="icon" viewBox="0 0 1024 1024" version="1.1" xmlns="http://www.w3.org/2000/svg" p-id="20553" data-spm-anchor-id="a313x.7781069.0.i15" width="128" height="128"><path d="M780.523777 537.247534c134.386876 0 243.376233 108.989357 243.376233 243.376233S914.910653 1023.90001 780.523777 1023.90001 537.147544 914.910653 537.147544 780.523777V537.247534h243.376233zM564.144908 780.523777c0 119.488331 96.890538 216.378869 216.378869 216.378869S996.902646 900.012108 996.902646 780.523777s-96.890538-216.378869-216.378869-216.378869H564.144908v216.378869zM780.523777 486.652475H537.247534V243.376233C537.247534 108.989357 646.136901 0 780.523777 0S1023.90001 108.989357 1023.90001 243.376233 914.910653 486.652475 780.523777 486.652475z m-216.378869-26.897373h216.378869c119.488331 0 216.378869-96.890538 216.378869-216.378869S900.012108 26.997364 780.523777 26.997364s-216.378869 96.890538-216.378869 216.378869v216.378869zM243.376233 537.247534h243.376233v243.376233c0 134.386876-108.989357 243.376233-243.376233 243.376233S0 914.910653 0 780.523777s108.989357-243.276243 243.376233-243.276243z m216.378869 26.897374H243.376233C123.887902 564.144908 26.997364 661.035446 26.997364 780.523777S123.887902 996.902646 243.376233 996.902646s216.378869-96.890538 216.378869-216.378869V564.144908zM243.376233 486.652475C108.989357 486.652475 0 377.763109 0 243.376233S108.989357 0 243.376233 0s243.376233 108.989357 243.376233 243.376233v243.376233H243.376233z m216.378869-26.897373V243.376233C459.755102 123.887902 362.864564 26.997364 243.376233 26.997364S26.897373 123.787911 26.897373 243.376233c0 119.488331 96.890538 216.378869 216.37887 216.378869h216.478859z" fill="#2c2c2c" p-id="20554"></path></svg>